<svg width="200px" height="80px" xmlns="http://www.w3.org/2000/svg" viewBox="127.97253112792968 7.879997253417969 244.05493774414063 134.24000549316406" style="background: none;" preserveAspectRatio="xMidYMid"><defs><filter id="editing-hole" x="-100%" y="-100%" width="300%" height="300%"><feFlood flood-color="#ffffff" result="black"></feFlood><feMorphology operator="dilate" radius="2" in="SourceGraphic" result="erode"></feMorphology><feGaussianBlur in="erode" stdDeviation="4" result="blur"></feGaussianBlur><feOffset in="blur" dx="2" dy="2" result="offset"></feOffset><feComposite operator="atop" in="offset" in2="black" result="merge"></feComposite><feComposite operator="in" in="merge" in2="SourceGraphic" result="inner-shadow"></feComposite></filter></defs><g filter="url(#editing-hole)"><g transform="translate(167.42502307891846, 99.5)"><path d="M2.13 0L2.13-48.10L15.18-48.10L15.18-48.10Q20.44-48.10 22.82-45.53L22.82-45.53L22.82-45.53Q25.20-42.95 25.20-37.13L25.20-37.13L25.20-35L25.20-35Q25.20-28.11 20.27-26.77L20.27-26.77L20.27-26.77Q23.30-25.98 24.53-23.13L24.53-23.13L24.53-23.13Q25.76-20.27 25.76-15.57L25.76-15.57L25.76-15.57Q25.76-7.90 23.46-3.95L23.46-3.95L23.46-3.95Q21.17 0 15.18 0L15.18 0L2.13 0ZM11.54-30.02L13.50-30.02L13.50-30.02Q14.73-30.02 15.18-30.94L15.18-30.94L15.18-30.94Q15.62-31.86 15.62-33.54L15.62-33.54L15.62-38.36L15.62-38.36Q15.62-40.71 13.55-40.71L13.55-40.71L11.54-40.71L11.54-30.02ZM12.49-8.46L12.49-8.46Q16.24-8.46 16.24-12.04L16.24-12.04L16.24-18.03L16.24-18.03Q16.24-20.22 15.60-21.34L15.60-21.34L15.60-21.34Q14.95-22.46 13.33-22.46L13.33-22.46L11.54-22.46L11.54-8.51L12.49-8.46ZM40.10 0.45L40.10 0.45Q34.16 0.45 31.28-2.91L31.28-2.91L31.28-2.91Q28.39-6.27 28.39-12.88L28.39-12.88L28.39-48.10L37.74-48.10L37.74-13.27L37.74-13.27Q37.74-10.98 38.19-9.69L38.19-9.69L38.19-9.69Q38.64-8.40 40.10-8.40L40.10-8.40L40.10-8.40Q41.55-8.40 42-9.66L42-9.66L42-9.66Q42.45-10.92 42.45-13.27L42.45-13.27L42.45-48.10L51.80-48.10L51.80-12.88L51.80-12.88Q51.80-6.27 48.92-2.91L48.92-2.91L48.92-2.91Q46.03 0.45 40.10 0.45L40.10 0.45ZM65.41 0.45L65.41 0.45Q60.20 0.45 57.65-3.22L57.65-3.22L57.65-3.22Q55.10-6.89 55.10-14.34L55.10-14.34L55.10-35.06L55.10-35.06Q55.10-41.72 58.07-45.14L58.07-45.14L58.07-45.14Q61.04-48.55 66.92-48.55L66.92-48.55L66.92-48.55Q71.68-48.55 74.31-46.65L74.31-46.65L74.31-46.65Q76.94-44.74 77.95-41.10L77.95-41.10L77.95-41.10Q78.96-37.46 78.96-31.75L78.96-31.75L69.55-31.75L69.55-36.06L69.55-36.06Q69.55-37.80 69.08-38.75L69.08-38.75L69.08-38.75Q68.60-39.70 67.37-39.70L67.37-39.70L67.37-39.70Q64.62-39.70 64.62-36.12L64.62-36.12L64.62-12.82L64.62-12.82Q64.62-10.64 65.18-9.52L65.18-9.52L65.18-9.52Q65.74-8.40 67.14-8.40L67.14-8.40L67.14-8.40Q68.54-8.40 69.10-9.52L69.10-9.52L69.10-9.52Q69.66-10.64 69.66-12.82L69.66-12.82L69.66-19.71L67.09-19.71L67.09-28L78.85-28L78.85 0L74.98 0L73.36-4.03L73.36-4.03Q70.78 0.45 65.41 0.45L65.41 0.45ZM90.72 0L81.37 0L86.02-48.10L102.31-48.10L106.90 0L97.78 0L97.10-7.78L91.28-7.78L90.72 0ZM93.80-39.93L92.01-15.46L96.38-15.46L94.25-39.93L93.80-39.93ZM123.59 0L113.96 0L113.96-38.86L108.25-38.86L108.25-48.10L129.30-48.10L129.30-38.86L123.59-38.86L123.59 0ZM145.77 0L136.14 0L136.14-38.86L130.42-38.86L130.42-48.10L151.48-48.10L151.48-38.86L145.77-38.86L145.77 0ZM163.02 0L153.72 0L153.72-48.10L163.02-48.10L163.02 0Z" fill="#e8e8e8"></path></g></g><style>text {
  font-size: 64px;
  font-family: Arial Black;
  dominant-baseline: central;
  text-anchor: middle;
}</style></svg>